<svg width="64" height="64" viewBox="0 0 64 64" fill="none" xmlns="http://www.w3.org/2000/svg">
<g clip-path="url(#clip0_2073_156)">
<path d="M64 0H0V64H64V0Z" fill="#36393C"/>
<path d="M32.0028 60.7778L15.0477 52.9274L12.7878 51.9846C12.5091 51.8766 12.3395 51.8458 12.1996 51.5795L3.25977 32.9841C3.44012 32.4925 3.69462 32.0352 3.93655 31.5721L11.8383 15.6004C12.0654 15.1434 13.2232 12.6004 13.4159 12.4473C13.5487 12.3419 13.7213 12.2726 13.8724 12.1977L28.8217 4.55962C29.8827 3.99895 31.0164 3.55263 32.0411 2.92969C32.3899 3.23181 32.9452 3.43554 33.3571 3.64814L49.1582 11.7235C49.6558 11.9762 50.1862 12.1957 50.6692 12.4709L60.6616 32.7592C60.8322 33.1364 60.5299 33.4931 60.3639 33.8364L51.9264 51.3761C51.7442 51.7213 51.6597 51.7958 51.3024 51.9426L42.1263 56.0224L37.8086 58.0686C35.8668 58.9644 33.8806 59.7493 32.0028 60.7778ZM32.0563 9.62099L18.4707 16.614C17.5549 17.0408 17.7041 16.9898 17.2367 17.9198L9.80942 33.205L16.4298 46.5129C16.7474 47.1738 16.6832 47.135 17.3567 47.41L19.7772 48.4669C19.9776 48.5565 20.7309 48.8094 20.8548 48.9264L20.8061 40.4263C19.9528 40.1161 18.8191 39.6031 18.0634 39.1299C14.7857 37.0774 14.0183 32.5949 16.1086 29.3964C16.4996 29.5033 16.9201 29.8052 17.2709 30.0191L27.4758 35.8746L29.9222 37.1544C30.0764 37.225 30.2364 37.249 30.3641 37.3638L30.3119 53.1966C30.4449 53.3218 30.6197 53.3525 30.7791 53.4353L31.9603 54.0625C33.9117 53.2 33.6474 53.4987 33.6463 51.5312L33.6406 37.5451C33.6411 37.2444 34.5687 36.9421 34.9159 36.7563L46.4382 30.1705C46.9097 29.884 47.3674 29.5484 47.8981 29.38C48.5244 29.9714 49.0713 32.1094 49.0973 32.9996C49.1988 36.4805 47.2492 38.4913 44.2186 39.968C43.9836 40.0825 43.2712 40.3583 43.1224 40.4856L43.1582 48.907C43.2974 48.8039 43.5491 48.7533 43.7152 48.6791L46.6819 47.3949C47.3692 47.0939 47.3381 47.2108 47.6453 46.5514L53.8474 33.7729C53.9528 33.564 54.0841 33.365 54.1792 33.1521C53.8054 32.601 53.5329 31.973 53.2468 31.3727L47.1651 18.8387C46.8421 18.1827 46.5859 17.1544 45.9761 16.8459L35.9824 11.7027C34.6728 11.0261 33.2871 10.4399 32.0563 9.62099Z" fill="url(#paint0_linear_2073_156)"/>
<path d="M19.1599 23.1728L19.3335 22.1148C20.4997 17.5568 26.6808 16.6219 28.9074 20.5019C30.2903 22.9116 29.6325 26.0763 27.1655 27.4821C27.8952 27.7392 28.5933 28.2248 29.2594 28.6191L31.9449 30.2581L36.7673 27.3937L36.5809 27.2967C32.7838 25.1063 34.034 18.4914 39.074 18.0726L39.1335 18.0696C44.2223 17.8254 46.5973 23.9674 43.1394 27.6221C42.4079 28.3953 41.4222 28.8214 40.5255 29.3663L33.4289 33.6184C31.594 34.7321 32.1197 34.6257 30.209 33.4621L21.6502 28.3473C19.9127 27.2217 19.1317 25.2036 19.1599 23.1728Z" fill="url(#paint1_linear_2073_156)"/>
</g>
<defs>
<linearGradient id="paint0_linear_2073_156" x1="31.986" y1="2.92969" x2="31.986" y2="60.7778" gradientUnits="userSpaceOnUse">
<stop stop-color="#40E0D0"/>
<stop offset="1" stop-color="#EE82EE"/>
</linearGradient>
<linearGradient id="paint1_linear_2073_156" x1="31.9644" y1="18.0625" x2="31.9644" y2="34.397" gradientUnits="userSpaceOnUse">
<stop stop-color="#40E0D0"/>
<stop offset="1" stop-color="#EE82EE"/>
</linearGradient>
<clipPath id="clip0_2073_156">
<rect width="64" height="64" rx="5" fill="white"/>
</clipPath>
</defs>
</svg>
