<svg width="64" height="64" viewBox="0 0 64 64" fill="none" xmlns="http://www.w3.org/2000/svg">
<rect width="64" height="64" rx="12" fill="#E4E0DB"/>
<path d="M31.7269 57.7778L16.5509 50.7512L14.5282 49.9073C14.2787 49.8107 14.127 49.783 14.0017 49.5447L6 32.9007C6.16142 32.4606 6.38922 32.0514 6.60577 31.6368L13.6784 17.3411C13.8816 16.932 14.9179 14.6559 15.0904 14.5189C15.2092 14.4246 15.3638 14.3625 15.499 14.2954L28.8796 7.4589C29.8292 6.95706 30.844 6.55757 31.7611 6C32.0734 6.27042 32.5704 6.45277 32.939 6.64306L47.082 13.8711C47.5274 14.0972 48.0022 14.2937 48.4345 14.54L57.3783 32.6994C57.531 33.0369 57.2605 33.3562 57.1119 33.6635L49.5598 49.3627C49.3967 49.6716 49.321 49.7383 49.0013 49.8697L40.7881 53.5214L36.9234 55.3529C35.1854 56.1547 33.4076 56.8572 31.7269 57.7778ZM31.7748 11.9891L19.6147 18.2483C18.7951 18.6303 18.9286 18.5847 18.5102 19.4171L11.8624 33.0984L17.788 45.0098C18.0723 45.6013 18.0148 45.5666 18.6176 45.8127L20.7841 46.7587C20.9635 46.8389 21.6378 47.0653 21.7487 47.17L21.7051 39.5618C20.9413 39.2843 19.9266 38.8251 19.2502 38.4015C16.3164 36.5644 15.6296 32.5523 17.5005 29.6894C17.8505 29.7851 18.2268 30.0554 18.5409 30.2468L27.6749 35.4878L29.8646 36.6333C30.0026 36.6965 30.1459 36.718 30.2601 36.8207L30.2134 50.9922C30.3325 51.1042 30.4889 51.1317 30.6315 51.2057L31.6888 51.7672C33.4354 50.9952 33.1989 51.2626 33.1979 49.5015L33.1928 36.9831C33.1932 36.7139 34.0235 36.4433 34.3343 36.277L44.6475 30.3823C45.0695 30.1258 45.4792 29.8254 45.9541 29.6747C46.5148 30.2041 47.0043 32.1177 47.0276 32.9145C47.1184 36.0301 45.3734 37.8299 42.6608 39.1517C42.4504 39.2542 41.8128 39.501 41.6797 39.615L41.7117 47.1527C41.8363 47.0604 42.0615 47.015 42.2102 46.9487L44.8656 45.7992C45.4808 45.5298 45.4529 45.6344 45.7279 45.0442L51.2792 33.6066C51.3735 33.4197 51.491 33.2416 51.5762 33.051C51.2416 32.5577 50.9977 31.9956 50.7416 31.4584L45.2981 20.2396C45.009 19.6525 44.7797 18.732 44.2338 18.4559L35.2889 13.8524C34.1167 13.2469 32.8764 12.7221 31.7748 11.9891Z" fill="#A29C94"/>
<path d="M20.2321 24.1209L20.3875 23.174C21.4313 19.0943 26.9638 18.2575 28.9567 21.7303C30.1945 23.8871 29.6058 26.7198 27.3977 27.978C28.0507 28.2081 28.6756 28.6428 29.2718 28.9957L31.6755 30.4627L35.9918 27.8989L35.825 27.8121C32.4264 25.8515 33.5454 19.9308 38.0565 19.5559L38.1098 19.5532C42.6646 19.3347 44.7903 24.8322 41.6953 28.1033C41.0406 28.7954 40.1583 29.1768 39.3557 29.6645L33.0038 33.4704C31.3615 34.4672 31.8319 34.372 30.1218 33.3305L22.461 28.7524C20.9059 27.7449 20.2068 25.9386 20.2321 24.1209Z" fill="#A29C94"/>
</svg>
