<svg width="31" height="31" viewBox="0 0 31 31" xmlns="http://www.w3.org/2000/svg">
  <path fill-rule="evenodd" clip-rule="evenodd" d="M2.56 0H28.16C29.568 0 30.72 1.152 30.72 2.56V28.16C30.72 29.568 29.568 30.72 28.16 30.72H2.56C1.152 30.72 0 29.568 0 28.16V2.56C0 1.152 1.152 0 2.56 0Z" fill="#393939"/>
  <path fill-rule="evenodd" clip-rule="evenodd" d="M16.2886 24.6457H18.86V20.1457C18.86 19.6314 18.6029 18.5386 18.2171 18.2171C21.0457 17.8957 23.36 16.2886 23.36 13.0743C23.36 9.86 22.7171 9.21714 22.0743 8.57428C22.0822 8.55458 22.0917 8.53173 22.1026 8.50581C22.269 8.1088 22.7381 6.98931 22.0743 5.36C22.0743 5.36 20.7886 5.36 19.5029 7.28857C18.86 6.64571 16.9314 6.64571 16.2886 6.64571C15.6457 6.64571 13.7171 6.64571 13.0743 7.28857C11.7886 5.36 10.5029 5.36 10.5029 5.36C9.88117 7.03856 10.3417 8.17603 10.489 8.53983C10.494 8.55221 10.4986 8.5637 10.5029 8.57428C9.86 9.21714 9.21714 9.86 9.21714 13.0743C9.21714 16.2886 11.5314 17.8957 14.36 18.2171C13.9743 18.5386 13.7171 19.5029 13.7171 20.1457C13.01 20.4671 11.0171 20.7886 9.86 18.86C9.86 18.86 9.21714 17.5743 7.93143 17.5743C7.93143 17.5743 6.64571 17.4457 7.93143 18.2171C7.93143 18.2171 8.57429 18.86 9.21714 20.1457C9.21714 20.1457 10.1814 22.8457 13.7171 22.0743V24.6457H16.2886Z" fill="#E4E0DB"/>
</svg>
